<svg xmlns="http://www.w3.org/2000/svg" viewBox="0 0 100 100">
  <path fill="#0FA97A" d="M0 33.2C0 5.9 5.9 0 33.2 0h33.6C94.1 0 100 5.9 100 33.2v33.6c0 27.3-5.9 33.2-33.2 33.2H33.2C5.9 100 0 94.1 0 66.8V33.2Z"/>
  <g transform="rotate(5 50 50) translate(-7 -7) scale(1.14)">
    <g fill="#FFFFFF">
      <circle cx="58" cy="34.5" r="14.5"/>
      <circle cx="40.5" cy="37" r="12"/>
      <rect x="27" y="38" width="46.5" height="11" rx="4"/>
    </g>
    <rect x="27.5" y="43.5" width="45.5" height="5.5" rx="2.75" fill="#FFE3E3"/>
    <path stroke="#22232E" stroke-width="2.4" fill="none" stroke-linecap="round" d="M30 51 42 63.5 M50 51 50 61.5 M70.5 51 58 63.5"/>
    <path fill="#FFFFFF" d="M41.25 65h17.5v12a8.75 3.4 0 0 1-17.5 0Z"/>
    <ellipse cx="50" cy="65" rx="8.75" ry="3.3" fill="#FFE3E3"/>
    <path stroke="#DEBFBF" stroke-width="1.8" fill="none" d="M41.25 70a8.75 3.3 0 0 0 17.5 0 M41.25 74a8.75 3.3 0 0 0 17.5 0"/>
  </g>
</svg>
